<svg width="18" height="18" viewBox="0 0 18 18" fill="none" xmlns="http://www.w3.org/2000/svg">
<path d="M13.9286 0.285715C14.814 0.285715 15.5692 0.601934 16.1942 1.23438C16.8266 1.85938 17.1429 2.61458 17.1429 3.5V14.2143C17.1429 15.0997 16.8266 15.8549 16.1942 16.4799C15.5692 17.1124 14.814 17.4286 13.9286 17.4286H11.8304V10.7879H14.0513L14.3862 8.19866H11.8304V6.54688C11.8304 6.13021 11.9159 5.81771 12.0871 5.60938C12.2656 5.40104 12.6079 5.29688 13.1138 5.29688L14.4754 5.28571V2.97545C14.0067 2.90848 13.3445 2.875 12.4888 2.875C11.4769 2.875 10.6659 3.17262 10.0558 3.76786C9.45312 4.3631 9.15179 5.20387 9.15179 6.29018V8.19866H6.91964V10.7879H9.15179V17.4286H3.21429C2.32887 17.4286 1.56994 17.1124 0.9375 16.4799C0.3125 15.8549 0 15.0997 0 14.2143V3.5C0 2.61458 0.3125 1.85938 0.9375 1.23438C1.56994 0.601934 2.32887 0.285715 3.21429 0.285715H13.9286Z" fill="white"/>
</svg>
