<svg width="18" height="18" viewBox="0 0 18 18" fill="none" xmlns="http://www.w3.org/2000/svg">
<path d="M10.5915 10.8772C11.1496 10.3192 11.4286 9.64583 11.4286 8.85714C11.4286 8.06845 11.1496 7.39509 10.5915 6.83705C10.0335 6.27902 9.36012 6 8.57143 6C7.78274 6 7.10938 6.27902 6.55134 6.83705C5.9933 7.39509 5.71429 8.06845 5.71429 8.85714C5.71429 9.64583 5.9933 10.3192 6.55134 10.8772C7.10938 11.4353 7.78274 11.7143 8.57143 11.7143C9.36012 11.7143 10.0335 11.4353 10.5915 10.8772ZM11.6853 5.7433C12.5409 6.59896 12.9688 7.6369 12.9688 8.85714C12.9688 10.0774 12.5409 11.1153 11.6853 11.971C10.8296 12.8266 9.79167 13.2545 8.57143 13.2545C7.35119 13.2545 6.31324 12.8266 5.45759 11.971C4.60193 11.1153 4.17411 10.0774 4.17411 8.85714C4.17411 7.6369 4.60193 6.59896 5.45759 5.7433C6.31324 4.88765 7.35119 4.45982 8.57143 4.45982C9.79167 4.45982 10.8296 4.88765 11.6853 5.7433ZM13.8728 3.5558C14.0737 3.7567 14.1741 3.99851 14.1741 4.28125C14.1741 4.56399 14.0737 4.8058 13.8728 5.0067C13.6719 5.20759 13.4301 5.30804 13.1473 5.30804C12.8646 5.30804 12.6228 5.20759 12.4219 5.0067C12.221 4.8058 12.1205 4.56399 12.1205 4.28125C12.1205 3.99851 12.221 3.7567 12.4219 3.5558C12.6228 3.35491 12.8646 3.25446 13.1473 3.25446C13.4301 3.25446 13.6719 3.35491 13.8728 3.5558ZM9.41964 1.82589C8.90625 1.82589 8.62351 1.82589 8.57143 1.82589C8.51935 1.82589 8.23289 1.82589 7.71205 1.82589C7.19866 1.81845 6.80804 1.81845 6.54018 1.82589C6.27232 1.82589 5.91146 1.83705 5.45759 1.85938C5.01116 1.87426 4.62798 1.91146 4.30804 1.97098C3.99554 2.02307 3.7314 2.09003 3.51562 2.17188C3.1436 2.32068 2.81622 2.53646 2.53348 2.8192C2.25074 3.10193 2.03497 3.42932 1.88616 3.80134C1.80432 4.01711 1.73363 4.28497 1.67411 4.60491C1.62202 4.91741 1.58482 5.3006 1.5625 5.75446C1.54762 6.20089 1.53646 6.55804 1.52902 6.82589C1.52902 7.09375 1.52902 7.4881 1.52902 8.00893C1.53646 8.52232 1.54018 8.80506 1.54018 8.85714C1.54018 8.90923 1.53646 9.19568 1.52902 9.71652C1.52902 10.2299 1.52902 10.6205 1.52902 10.8884C1.53646 11.1562 1.54762 11.5171 1.5625 11.971C1.58482 12.4174 1.62202 12.8006 1.67411 13.1205C1.73363 13.433 1.80432 13.6972 1.88616 13.9129C2.03497 14.285 2.25074 14.6124 2.53348 14.8951C2.81622 15.1778 3.1436 15.3936 3.51562 15.5424C3.7314 15.6243 3.99554 15.6949 4.30804 15.7545C4.62798 15.8065 5.01116 15.8438 5.45759 15.8661C5.91146 15.881 6.27232 15.8921 6.54018 15.8996C6.80804 15.8996 7.19866 15.8996 7.71205 15.8996C8.23289 15.8921 8.51935 15.8884 8.57143 15.8884C8.62351 15.8884 8.90625 15.8921 9.41964 15.8996C9.94048 15.8996 10.3348 15.8996 10.6027 15.8996C10.8705 15.8921 11.2277 15.881 11.6741 15.8661C12.128 15.8438 12.5112 15.8065 12.8237 15.7545C13.1436 15.6949 13.4115 15.6243 13.6272 15.5424C13.9993 15.3936 14.3266 15.1778 14.6094 14.8951C14.8921 14.6124 15.1079 14.285 15.2567 13.9129C15.3385 13.6972 15.4055 13.433 15.4576 13.1205C15.5171 12.8006 15.5543 12.4174 15.5692 11.971C15.5915 11.5171 15.6027 11.1562 15.6027 10.8884C15.6101 10.6205 15.6101 10.2299 15.6027 9.71652C15.6027 9.19568 15.6027 8.90923 15.6027 8.85714C15.6027 8.80506 15.6027 8.52232 15.6027 8.00893C15.6101 7.4881 15.6101 7.09375 15.6027 6.82589C15.6027 6.55804 15.5915 6.20089 15.5692 5.75446C15.5543 5.3006 15.5171 4.91741 15.4576 4.60491C15.4055 4.28497 15.3385 4.01711 15.2567 3.80134C15.1079 3.42932 14.8921 3.10193 14.6094 2.8192C14.3266 2.53646 13.9993 2.32068 13.6272 2.17188C13.4115 2.09003 13.1436 2.02307 12.8237 1.97098C12.5112 1.91146 12.128 1.87426 11.6741 1.85938C11.2277 1.83705 10.8705 1.82589 10.6027 1.82589C10.3348 1.81845 9.94048 1.81845 9.41964 1.82589ZM17.0871 5.3192C17.1243 5.97396 17.1429 7.15327 17.1429 8.85714C17.1429 10.561 17.1243 11.7403 17.0871 12.3951C17.0126 13.9427 16.5513 15.1406 15.7031 15.9888C14.8549 16.8371 13.657 17.2984 12.1094 17.3728C11.4546 17.41 10.2753 17.4286 8.57143 17.4286C6.86756 17.4286 5.68824 17.41 5.03348 17.3728C3.48586 17.2984 2.28795 16.8371 1.43973 15.9888C0.591518 15.1406 0.130208 13.9427 0.0558036 12.3951C0.0186012 11.7403 0 10.561 0 8.85714C0 7.15327 0.0186012 5.97396 0.0558036 5.3192C0.130208 3.77158 0.591518 2.57366 1.43973 1.72545C2.28795 0.877232 3.48586 0.415922 5.03348 0.341518C5.68824 0.304316 6.86756 0.285715 8.57143 0.285715C10.2753 0.285715 11.4546 0.304316 12.1094 0.341518C13.657 0.415922 14.8549 0.877232 15.7031 1.72545C16.5513 2.57366 17.0126 3.77158 17.0871 5.3192Z" fill="white"/>
</svg>
